<svg preserveAspectRatio="none" width="100%" height="100%" overflow="visible" style="display: block;" viewBox="0 0 16.8752 16.8782" fill="none" xmlns="http://www.w3.org/2000/svg">
<path id="Vector" d="M15.0445 1.83367C14.0518 0.839532 12.753 0.20888 11.3579 0.0434748C9.96269 -0.12193 8.55249 0.187562 7.3548 0.922008C6.15712 1.65645 5.24182 2.77301 4.75661 4.09151C4.2714 5.41 4.24458 6.85353 4.68048 8.18913L0.366413 12.5032C0.249834 12.6188 0.157408 12.7565 0.0945058 12.9082C0.0316039 13.0599 -0.000518312 13.2226 6.32415e-06 13.3868V15.6282C6.32415e-06 15.9597 0.131702 16.2777 0.366123 16.5121C0.600543 16.7465 0.918486 16.8782 1.25001 16.8782H3.75001C3.91577 16.8782 4.07474 16.8123 4.19195 16.6951C4.30916 16.5779 4.37501 16.419 4.37501 16.2532V15.0032H5.62501C5.79077 15.0032 5.94974 14.9373 6.06695 14.8201C6.18416 14.7029 6.25001 14.544 6.25001 14.3782V13.1282H7.50001C7.58211 13.1283 7.66342 13.1122 7.73929 13.0808C7.81516 13.0494 7.88411 13.0034 7.94219 12.9454L8.68907 12.1977C9.31422 12.4011 9.96762 12.5042 10.625 12.5032H10.6328C11.8683 12.5017 13.0757 12.1341 14.1023 11.4467C15.129 10.7594 15.9289 9.78314 16.401 8.64139C16.8731 7.49965 16.9962 6.24359 16.7548 5.03191C16.5133 3.82022 15.9182 2.70727 15.0445 1.83367ZM15.625 6.41726C15.5398 9.08054 13.3008 11.2501 10.6336 11.2532H10.625C9.99232 11.2543 9.36524 11.1347 8.77735 10.9009C8.66235 10.8509 8.535 10.8368 8.41184 10.8602C8.28868 10.8836 8.1754 10.9435 8.08673 11.0321L7.24141 11.8782H5.62501C5.45925 11.8782 5.30028 11.944 5.18306 12.0613C5.06585 12.1785 5.00001 12.3374 5.00001 12.5032V13.7532H3.75001C3.58425 13.7532 3.42527 13.819 3.30806 13.9363C3.19085 14.0535 3.12501 14.2124 3.12501 14.3782V15.6282H1.25001V13.3868L5.8461 8.79148C5.93472 8.7028 5.99462 8.58953 6.01803 8.46637C6.04143 8.34321 6.02726 8.21585 5.97735 8.10085C5.74278 7.511 5.62318 6.88173 5.62501 6.24695C5.62501 3.57976 7.79766 1.3407 10.4609 1.25554C11.1451 1.23271 11.8266 1.35059 12.4633 1.60188C13.1 1.85317 13.6783 2.23252 14.1624 2.71642C14.6466 3.20033 15.0262 3.77848 15.2778 4.41507C15.5293 5.05166 15.6475 5.73313 15.625 6.41726ZM13.125 4.6907C13.125 4.87612 13.07 5.05737 12.967 5.21154C12.864 5.36572 12.7176 5.48588 12.5463 5.55683C12.375 5.62779 12.1865 5.64636 12.0046 5.61018C11.8228 5.57401 11.6557 5.48472 11.5246 5.35361C11.3935 5.2225 11.3042 5.05545 11.268 4.87359C11.2318 4.69174 11.2504 4.50324 11.3214 4.33193C11.3923 4.16063 11.5125 4.01421 11.6667 3.91119C11.8208 3.80818 12.0021 3.7532 12.1875 3.7532C12.4361 3.7532 12.6746 3.85197 12.8504 4.02778C13.0262 4.2036 13.125 4.44206 13.125 4.6907Z" fill="var(--fill-0, #181818)"/>
</svg>
