<svg preserveAspectRatio="none" width="100%" height="100%" overflow="visible" style="display: block;" viewBox="0 0 16.2594 17.4999" fill="none" xmlns="http://www.w3.org/2000/svg">
<path id="Vector" d="M16.1648 12.1874C16.2474 12.3307 16.2698 12.5008 16.2272 12.6606C16.1846 12.8203 16.0804 12.9567 15.9375 13.0398L8.4375 17.4148C8.34193 17.4705 8.23329 17.4999 8.12266 17.4999C8.01203 17.4999 7.90338 17.4705 7.80781 17.4148L0.307813 13.0398C0.166948 12.9551 0.0650922 12.8184 0.0242969 12.6592C-0.0164984 12.5 0.00705024 12.3312 0.0898442 12.1892C0.172638 12.0472 0.308014 11.9436 0.466663 11.9007C0.625312 11.8578 0.794465 11.8792 0.9375 11.9601L8.125 16.1515L15.3125 11.9601C15.4558 11.8775 15.6259 11.8551 15.7856 11.8977C15.9454 11.9403 16.0817 12.0445 16.1648 12.1874ZM15.3125 8.21009L8.125 12.4015L0.9375 8.21009C0.795191 8.13924 0.63123 8.12528 0.478988 8.17105C0.326747 8.21682 0.197669 8.31888 0.118026 8.45647C0.0383825 8.59405 0.0141606 8.75681 0.0502898 8.91162C0.086419 9.06644 0.180184 9.20166 0.3125 9.28978L7.8125 13.6648C7.90807 13.7205 8.01671 13.7499 8.12734 13.7499C8.23797 13.7499 8.34662 13.7205 8.44219 13.6648L15.9422 9.28978C16.0142 9.24903 16.0774 9.19437 16.1282 9.12898C16.1789 9.06359 16.2162 8.98878 16.2378 8.90888C16.2594 8.82898 16.2649 8.74559 16.254 8.66354C16.2431 8.5815 16.216 8.50243 16.1743 8.43094C16.1326 8.35944 16.0771 8.29694 16.0111 8.24706C15.945 8.19718 15.8697 8.16092 15.7896 8.14037C15.7094 8.11983 15.6259 8.11541 15.544 8.12738C15.4621 8.13935 15.3834 8.16746 15.3125 8.21009ZM0 4.99994C0.000249251 4.89047 0.0292463 4.78299 0.084089 4.68824C0.138932 4.5935 0.217697 4.51483 0.3125 4.46009L7.8125 0.0850941C7.90807 0.0293645 8.01671 0 8.12734 0C8.23797 0 8.34662 0.0293645 8.44219 0.0850941L15.9422 4.46009C16.0365 4.51514 16.1148 4.59395 16.1692 4.68867C16.2236 4.78339 16.2522 4.89071 16.2522 4.99994C16.2522 5.10917 16.2236 5.21649 16.1692 5.31121C16.1148 5.40593 16.0365 5.48474 15.9422 5.53978L8.44219 9.91478C8.34662 9.97051 8.23797 9.99988 8.12734 9.99988C8.01671 9.99988 7.90807 9.97051 7.8125 9.91478L0.3125 5.53978C0.217697 5.48505 0.138932 5.40637 0.084089 5.31163C0.0292463 5.21689 0.000249251 5.10941 0 4.99994ZM1.86563 4.99994L8.125 8.6515L14.3844 4.99994L8.125 1.34838L1.86563 4.99994Z" fill="var(--fill-0, #181818)"/>
</svg>
