<svg preserveAspectRatio="none" width="100%" height="100%" overflow="visible" style="display: block;" viewBox="0 0 15 13.75" fill="none" xmlns="http://www.w3.org/2000/svg">
<path id="Vector" d="M13.75 7.5H1.25C0.918479 7.5 0.600537 7.6317 0.366116 7.86612C0.131696 8.10054 0 8.41848 0 8.75V12.5C0 12.8315 0.131696 13.1495 0.366116 13.3839C0.600537 13.6183 0.918479 13.75 1.25 13.75H13.75C14.0815 13.75 14.3995 13.6183 14.6339 13.3839C14.8683 13.1495 15 12.8315 15 12.5V8.75C15 8.41848 14.8683 8.10054 14.6339 7.86612C14.3995 7.6317 14.0815 7.5 13.75 7.5ZM13.75 12.5H1.25V8.75H13.75V12.5ZM13.75 0H1.25C0.918479 0 0.600537 0.131696 0.366116 0.366116C0.131696 0.600537 0 0.918479 0 1.25V5C0 5.33152 0.131696 5.64946 0.366116 5.88388C0.600537 6.1183 0.918479 6.25 1.25 6.25H13.75C14.0815 6.25 14.3995 6.1183 14.6339 5.88388C14.8683 5.64946 15 5.33152 15 5V1.25C15 0.918479 14.8683 0.600537 14.6339 0.366116C14.3995 0.131696 14.0815 0 13.75 0ZM13.75 5H1.25V1.25H13.75V5ZM12.5 3.125C12.5 3.31042 12.445 3.49168 12.342 3.64585C12.239 3.80002 12.0926 3.92018 11.9213 3.99114C11.75 4.06209 11.5615 4.08066 11.3796 4.04449C11.1977 4.00831 11.0307 3.91902 10.8996 3.78791C10.7685 3.6568 10.6792 3.48975 10.643 3.3079C10.6068 3.12604 10.6254 2.93754 10.6964 2.76623C10.7673 2.59493 10.8875 2.44851 11.0417 2.3455C11.1958 2.24248 11.3771 2.1875 11.5625 2.1875C11.8111 2.1875 12.0496 2.28627 12.2254 2.46209C12.4012 2.6379 12.5 2.87636 12.5 3.125ZM12.5 10.625C12.5 10.8104 12.445 10.9917 12.342 11.1458C12.239 11.3 12.0926 11.4202 11.9213 11.4911C11.75 11.5621 11.5615 11.5807 11.3796 11.5445C11.1977 11.5083 11.0307 11.419 10.8996 11.2879C10.7685 11.1568 10.6792 10.9898 10.643 10.8079C10.6068 10.626 10.6254 10.4375 10.6964 10.2662C10.7673 10.0949 10.8875 9.94851 11.0417 9.8455C11.1958 9.74248 11.3771 9.6875 11.5625 9.6875C11.8111 9.6875 12.0496 9.78627 12.2254 9.96209C12.4012 10.1379 12.5 10.3764 12.5 10.625Z" fill="var(--fill-0, #181818)"/>
</svg>
