<svg preserveAspectRatio="none" width="100%" height="100%" overflow="visible" style="display: block;" viewBox="0 0 15 14.9975" fill="none" xmlns="http://www.w3.org/2000/svg">
<path id="Vector" d="M5.00001 2.49874C4.99977 2.03121 4.86844 1.57311 4.62092 1.17648C4.37341 0.77984 4.01963 0.460557 3.59976 0.254888C3.1799 0.0492202 2.71078 -0.0345914 2.24567 0.012972C1.78057 0.0605354 1.33812 0.237568 0.968577 0.523964C0.599034 0.81036 0.317205 1.19464 0.155097 1.63317C-0.00701155 2.0717 -0.0429027 2.54689 0.0514997 3.00479C0.145902 3.46269 0.366815 3.88495 0.689149 4.2236C1.01148 4.56225 1.42232 4.80373 1.87501 4.92062V10.0769C1.28584 10.229 0.772388 10.5908 0.43088 11.0944C0.0893722 11.598 -0.0567397 12.2089 0.0199318 12.8125C0.0966034 13.4161 0.390794 13.9711 0.847361 14.3733C1.30393 14.7756 1.89152 14.9975 2.50001 14.9975C3.10849 14.9975 3.69609 14.7756 4.15265 14.3733C4.60922 13.9711 4.90341 13.4161 4.98008 12.8125C5.05675 12.2089 4.91064 11.598 4.56913 11.0944C4.22762 10.5908 3.71417 10.229 3.12501 10.0769V4.92062C3.66146 4.78128 4.13654 4.46794 4.47584 4.02968C4.81513 3.59142 4.99948 3.05299 5.00001 2.49874ZM1.25001 2.49874C1.25001 2.25151 1.32332 2.00984 1.46067 1.80428C1.59802 1.59872 1.79324 1.4385 2.02165 1.34389C2.25006 1.24928 2.50139 1.22453 2.74387 1.27276C2.98635 1.32099 3.20907 1.44004 3.38389 1.61486C3.5587 1.78967 3.67776 2.0124 3.72599 2.25488C3.77422 2.49735 3.74947 2.74869 3.65486 2.97709C3.56025 3.2055 3.40003 3.40073 3.19447 3.53808C2.98891 3.67543 2.74723 3.74874 2.50001 3.74874C2.16849 3.74874 1.85054 3.61704 1.61612 3.38262C1.3817 3.1482 1.25001 2.83026 1.25001 2.49874ZM3.75001 12.4987C3.75001 12.746 3.67669 12.9876 3.53934 13.1932C3.40199 13.3988 3.20677 13.559 2.97836 13.6536C2.74995 13.7482 2.49862 13.773 2.25614 13.7247C2.01367 13.6765 1.79094 13.5574 1.61612 13.3826C1.44131 13.2078 1.32226 12.9851 1.27402 12.7426C1.22579 12.5001 1.25055 12.2488 1.34516 12.0204C1.43977 11.792 1.59998 11.5968 1.80554 11.4594C2.0111 11.3221 2.25278 11.2487 2.50001 11.2487C2.83153 11.2487 3.14947 11.3804 3.38389 11.6149C3.61831 11.8493 3.75001 12.1672 3.75001 12.4987ZM13.125 10.0769V6.14171C13.1263 5.89516 13.0786 5.65082 12.9847 5.42283C12.8908 5.19485 12.7526 4.98777 12.5781 4.81358L9.6336 1.87374H11.875C12.0408 1.87374 12.1997 1.80789 12.3169 1.69068C12.4342 1.57347 12.5 1.4145 12.5 1.24874C12.5 1.08298 12.4342 0.924009 12.3169 0.806799C12.1997 0.689589 12.0408 0.623741 11.875 0.623741H8.12501C7.95925 0.623741 7.80027 0.689589 7.68306 0.806799C7.56585 0.924009 7.50001 1.08298 7.50001 1.24874V4.99874C7.50001 5.1645 7.56585 5.32347 7.68306 5.44068C7.80027 5.55789 7.95925 5.62374 8.12501 5.62374C8.29077 5.62374 8.44974 5.55789 8.56695 5.44068C8.68416 5.32347 8.75001 5.1645 8.75001 4.99874V2.75733L11.6922 5.70187C11.7502 5.75995 11.7962 5.8289 11.8276 5.90477C11.859 5.98064 11.8751 6.06195 11.875 6.14405V10.0769C11.2858 10.229 10.7724 10.5908 10.4309 11.0944C10.0894 11.598 9.94326 12.2089 10.0199 12.8125C10.0966 13.4161 10.3908 13.9711 10.8474 14.3733C11.3039 14.7756 11.8915 14.9975 12.5 14.9975C13.1085 14.9975 13.6961 14.7756 14.1527 14.3733C14.6092 13.9711 14.9034 13.4161 14.9801 12.8125C15.0568 12.2089 14.9106 11.598 14.5691 11.0944C14.2276 10.5908 13.7142 10.229 13.125 10.0769ZM12.5 13.7487C12.2528 13.7487 12.0111 13.6754 11.8055 13.5381C11.6 13.4007 11.4398 13.2055 11.3452 12.9771C11.2505 12.7487 11.2258 12.4974 11.274 12.2549C11.3223 12.0124 11.4413 11.7897 11.6161 11.6149C11.7909 11.44 12.0137 11.321 12.2561 11.2728C12.4986 11.2245 12.75 11.2493 12.9784 11.3439C13.2068 11.4385 13.402 11.5987 13.5393 11.8043C13.6767 12.0098 13.75 12.2515 13.75 12.4987C13.75 12.8303 13.6183 13.1482 13.3839 13.3826C13.1495 13.617 12.8315 13.7487 12.5 13.7487Z" fill="var(--fill-0, #181818)"/>
</svg>
