<svg preserveAspectRatio="none" width="100%" height="100%" overflow="visible" style="display: block;" viewBox="0 0 15.0016 11.2524" fill="none" xmlns="http://www.w3.org/2000/svg">
<path id="Vector" d="M6.66645 6.09497L1.04145 11.095C0.979893 11.1495 0.908198 11.1914 0.830459 11.2182C0.75272 11.245 0.67046 11.2563 0.588374 11.2513C0.506289 11.2463 0.425986 11.2252 0.35205 11.1892C0.278115 11.1532 0.211995 11.103 0.157466 11.0415C0.102936 10.9799 0.0610655 10.9082 0.0342438 10.8305C0.00742213 10.7527 -0.00382495 10.6705 0.00114444 10.5884C0.00611382 10.5063 0.0272024 10.426 0.0632063 10.3521C0.0992102 10.2781 0.149424 10.212 0.210981 10.1575L5.31411 5.62622L0.211763 1.09497C0.150205 1.04044 0.0999916 0.974316 0.0639877 0.900381C0.0279838 0.826445 0.00689494 0.746142 0.00192556 0.664057C-0.00304383 0.581971 0.00820355 0.499711 0.0350252 0.421972C0.0618469 0.344233 0.103718 0.272539 0.158247 0.210981C0.212776 0.149424 0.278896 0.0992102 0.352832 0.0632063C0.426767 0.0272024 0.50707 0.00611382 0.589156 0.00114444C0.671241 -0.00382495 0.753502 0.00742213 0.831241 0.0342438C0.90898 0.0610655 0.980674 0.102936 1.04223 0.157466L6.66723 5.15747C6.73374 5.21612 6.787 5.28825 6.82348 5.36907C6.85996 5.44989 6.87883 5.53754 6.87883 5.62622C6.87883 5.71489 6.85996 5.80255 6.82348 5.88336C6.787 5.96418 6.73374 6.03631 6.66723 6.09497H6.66645ZM14.3766 10.0012H6.87661C6.71085 10.0012 6.55187 10.0671 6.43466 10.1843C6.31745 10.3015 6.25161 10.4605 6.25161 10.6262C6.25161 10.792 6.31745 10.9509 6.43466 11.0682C6.55187 11.1854 6.71085 11.2512 6.87661 11.2512H14.3766C14.5424 11.2512 14.7013 11.1854 14.8185 11.0682C14.9358 10.9509 15.0016 10.792 15.0016 10.6262C15.0016 10.4605 14.9358 10.3015 14.8185 10.1843C14.7013 10.0671 14.5424 10.0012 14.3766 10.0012Z" fill="var(--fill-0, #181818)"/>
</svg>
