<svg width="22" height="22" viewBox="0 0 22 22" fill="none" xmlns="http://www.w3.org/2000/svg">
<path d="M8.25909 3.46729C8.0417 2.87002 7.37684 2.55575 6.81149 2.84622C5.55078 3.49396 4.45252 4.42788 3.60824 5.57934C2.5362 7.04142 1.92179 8.78856 1.84271 10.5998C1.76363 12.4111 2.22343 14.2051 3.16396 15.7551C4.10449 17.305 5.48352 18.5413 7.12665 19.3075C8.76978 20.0737 10.6032 20.3355 12.3951 20.0597C14.187 19.7839 15.8569 18.9829 17.1936 17.7581C18.5302 16.5332 19.4737 14.9395 19.9046 13.1785C20.244 11.7916 20.2535 10.3499 19.9393 8.96782C19.7984 8.34802 19.1303 8.04072 18.533 8.25811C17.9358 8.4755 17.6382 9.1359 17.7529 9.76108C17.9268 10.7089 17.8999 11.6871 17.6688 12.6314C17.3461 13.9502 16.6396 15.1437 15.6385 16.061C14.6375 16.9783 13.3869 17.5781 12.045 17.7847C10.703 17.9912 9.32995 17.7952 8.09941 17.2214C6.86887 16.6476 5.83612 15.7218 5.13175 14.561C4.42739 13.4003 4.08304 12.0567 4.14227 10.7002C4.20149 9.34377 4.66162 8.03533 5.46448 6.94038C6.03933 6.15638 6.77141 5.50703 7.6092 5.03099C8.16183 4.71698 8.47648 4.06457 8.25909 3.46729Z" fill="#FF713E"/>
</svg>
