<svg width="64" height="64" viewBox="0 0 64 64" fill="none" xmlns="http://www.w3.org/2000/svg">
<path opacity="0.2" d="M53.8653 53.9997H10.1353C6.98025 53.9997 5.00025 50.6972 6.53275 48.0222L28.3977 10.0547C29.9727 7.30469 34.0278 7.30469 35.6028 10.0547L57.4678 48.0222C59.0003 50.6972 57.0203 53.9997 53.8653 53.9997Z" fill="#D33030" fill-opacity="0.56"/>
<path d="M59.2007 47.0227L37.3382 9.05516C36.7919 8.12498 36.012 7.35371 35.0757 6.81782C34.1395 6.28192 33.0795 6 32.0007 6C30.922 6 29.8619 6.28192 28.9257 6.81782C27.9895 7.35371 27.2095 8.12498 26.6632 9.05516L4.80073 47.0227C4.27507 47.9224 3.99805 48.9457 3.99805 49.9877C3.99805 51.0297 4.27507 52.053 4.80073 52.9527C5.34005 53.8885 6.11865 54.6639 7.05663 55.1995C7.99461 55.735 9.05819 56.0114 10.1382 56.0002H53.8632C54.9424 56.0105 56.005 55.7337 56.942 55.1982C57.879 54.6627 58.6568 53.8877 59.1957 52.9527C59.7221 52.0534 60 51.0304 60.0009 49.9883C60.0018 48.9463 59.7256 47.9228 59.2007 47.0227ZM55.7332 50.9502C55.5426 51.2753 55.269 51.5439 54.9404 51.7284C54.6118 51.9129 54.24 52.0067 53.8632 52.0002H10.1382C9.76142 52.0067 9.38966 51.9129 9.06105 51.7284C8.73245 51.5439 8.45882 51.2753 8.26823 50.9502C8.09559 50.6579 8.00452 50.3246 8.00452 49.9852C8.00452 49.6457 8.09559 49.3125 8.26823 49.0202L30.1307 11.0527C30.3252 10.7291 30.6 10.4614 30.9286 10.2755C31.2572 10.0896 31.6282 9.9919 32.0057 9.9919C32.3832 9.9919 32.7543 10.0896 33.0829 10.2755C33.4114 10.4614 33.6863 10.7291 33.8807 11.0527L55.7432 49.0202C55.9144 49.3133 56.0037 49.6471 56.0019 49.9865C56.0002 50.326 55.9074 50.6588 55.7332 50.9502ZM30.0007 36.0002V26.0002C30.0007 25.4697 30.2114 24.961 30.5865 24.586C30.9616 24.2109 31.4703 24.0002 32.0007 24.0002C32.5312 24.0002 33.0399 24.2109 33.4149 24.586C33.79 24.961 34.0007 25.4697 34.0007 26.0002V36.0002C34.0007 36.5306 33.79 37.0393 33.4149 37.4144C33.0399 37.7895 32.5312 38.0002 32.0007 38.0002C31.4703 38.0002 30.9616 37.7895 30.5865 37.4144C30.2114 37.0393 30.0007 36.5306 30.0007 36.0002ZM35.0007 45.0002C35.0007 45.5935 34.8248 46.1735 34.4951 46.6669C34.1655 47.1602 33.697 47.5447 33.1488 47.7718C32.6006 47.9989 31.9974 48.0583 31.4155 47.9425C30.8335 47.8268 30.299 47.541 29.8794 47.1215C29.4599 46.7019 29.1741 46.1674 29.0584 45.5854C28.9426 45.0035 29.002 44.4003 29.2291 43.8521C29.4562 43.3039 29.8407 42.8354 30.334 42.5058C30.8274 42.1761 31.4074 42.0002 32.0007 42.0002C32.7964 42.0002 33.5594 42.3162 34.122 42.8788C34.6847 43.4415 35.0007 44.2045 35.0007 45.0002Z" fill="#D33030"/>
</svg>
