<svg width="36" height="36" viewBox="0 0 36 36" fill="none" xmlns="http://www.w3.org/2000/svg">
<rect width="36" height="36" rx="10.8" fill="#FF713E"/>
<mask id="mask0_2995_5999" style="mask-type:luminance" maskUnits="userSpaceOnUse" x="7" y="9" width="22" height="18">
<path d="M28.7992 9H7.19922V27H28.7992V9Z" fill="white"/>
</mask>
<g mask="url(#mask0_2995_5999)">
<path d="M15.5617 13.1526H15.5521C14.9569 12.9817 14.3272 13.3234 14.1256 13.8879C13.9029 14.4946 14.2561 15.1897 14.8801 15.3817C16.4085 15.8156 17.0651 13.6249 15.5617 13.1526Z" fill="#181818"/>
<path d="M28.5881 16.25C26.6201 11.9396 20.3417 13.7233 19.7618 12.5943C18.0626 9.92744 14.8908 8.42984 11.4617 9.20168C10.9337 8.99048 9.11545 8.93288 7.94041 9.67208L8.64888 9.98504C8.70264 10.0081 8.68728 10.0023 8.766 10.0311C9.08664 10.1521 9.03096 10.1175 8.80057 10.2442C8.27257 10.5534 7.614 10.9124 7.20312 11.4519C7.2204 11.4769 8.10744 11.69 8.10744 11.69C8.1228 11.6938 8.28792 11.7111 8.25144 11.7841C5.35033 16.3652 10.2425 23.2791 12.6175 27.0001H19.493C18.4313 25.0993 17.2178 22.5054 17.6326 20.7447C17.7074 20.426 17.8034 20.0209 18.1951 19.9671C19.1417 19.8154 20.4089 19.8289 21.3113 19.7271C21.3113 19.7271 21.3157 19.7271 21.3247 19.7271C21.5167 19.7175 26.2169 19.1204 27.3421 22.0503C27.4381 22.3191 27.6589 22.1444 27.7472 21.9678C28.5862 20.2993 29.1277 17.6727 28.592 16.2519L28.5881 16.25ZM21.0002 14.835C20.67 15.4244 20.4454 16.1905 20.3878 16.8586C20.357 17.283 20.4012 17.7015 20.4434 18.1258C20.4665 18.3601 20.4684 18.6558 20.2802 18.8094C20.117 18.9476 19.8463 18.961 19.5737 18.9802C18.2354 18.9745 14.9714 18.9802 13.7138 18.1239L13.7062 18.1182C11.8764 17.0026 10.8972 14.4836 11.9839 12.5271C12.3353 11.8628 12.9823 11.4308 13.7196 11.2676C14.6681 11.0506 15.7126 11.2119 16.5593 11.6554C16.9049 11.8302 17.3177 12.0606 17.6326 12.3255C18.2566 12.8708 18.7903 13.4372 19.6082 13.6119C19.9846 13.7194 20.3762 13.7041 20.7526 13.7809C21.4572 13.9498 21.2806 14.3511 20.9983 14.8311L21.0002 14.835Z" fill="#181818"/>
</g>
</svg>
